<svg xmlns="http://www.w3.org/2000/svg" enable-background="new 0 0 512 512" viewBox="0 0 512 512" id="blood-bag">
  <path fill="#CCC" d="M370.269,515.5c-4.418,0-8-3.582-8-8c0-8.824-7.176-16-16-16h-8c-17.645,0-32-14.355-32-32v-8c0-4.418,3.582-8,8-8s8,3.582,8,8v8c0,8.824,7.176,16,16,16h8c17.645,0,32,14.355,32,32C378.269,511.918,374.687,515.5,370.269,515.5z"></path>
  <path fill="#F2F2F2" d="M426.269,83.5v240l-72,72h-24v-32h10.72l43.92-43.92c6-6,9.36-14.08,9.36-22.56v-176.4c0-11.44-6.16-22.08-16.16-27.76l-16.48-9.44c-8.24-4.72-15.36-11.2-20.72-19.04c-1.6-2.16-4-3.6-6.72-3.6h-151.84c-2.72,0-5.12,1.44-6.64,3.6c-5.44,7.84-12.56,14.32-20.8,19.04l-16.48,9.44c-10,5.68-16.16,16.32-16.16,27.76v176.4c0,8.48,3.36,16.56,9.36,22.56l46.64,46.64v29.28h-16l-72-72v-240l56-32l14.64-24.48c5.84-9.6,16.24-15.52,27.44-15.52h139.84c11.2,0,21.6,5.92,27.44,15.52l14.64,24.48L426.269,83.5z"></path>
  <path fill="#CCC" d="M426.269,83.5v240l-72,72h-24v-32h10.72l43.92-43.92c6-6,9.36-14.08,9.36-22.56v-176.4c0-11.44-6.16-22.08-16.16-27.76l-16.48-9.44c-8.24-4.72-15.36-11.2-20.72-19.04c-1.6-2.16-4-3.6-6.72-3.6h-75.92V11.5h69.92c11.2,0,21.6,5.92,27.44,15.52l14.64,24.48L426.269,83.5z"></path>
  <path fill="#EA2424" d="M394.269,120.62v176.4c0,8.48-3.36,16.56-9.36,22.56l-43.92,43.92h-10.72v56h-40v-56h-72v56h-40v-53.28l-46.64-46.64c-6-6-9.36-14.08-9.36-22.56v-176.4c0-11.44,6.16-22.08,16.16-27.76l16.48-9.44c8.24-4.72,15.36-11.2,20.8-19.04c1.52-2.16,3.92-3.6,6.64-3.6h151.84c2.72,0,5.12,1.44,6.72,3.6c5.36,7.84,12.48,14.32,20.72,19.04l16.48,9.44C388.109,98.54,394.269,109.18,394.269,120.62z"></path>
  <path fill="#B01B1B" d="M394.269,120.62v176.4c0,8.48-3.36,16.56-9.36,22.56l-43.92,43.92h-10.72v56h-40v-56h-72v56h-40v-53.28l-34.72-34.72h118.56c55.28,0,100.16-44.88,100.16-100.16V83.82l15.84,9.04C388.109,98.54,394.269,109.18,394.269,120.62z"></path>
  <circle cx="366.269" cy="183.5" r="12" fill="#73020C"></circle>
  <circle cx="353.149" cy="125.66" r="16" fill="#73020C"></circle>
  <circle cx="358.269" cy="279.5" r="12" fill="#F27979"></circle>
  <path fill="#3D71D9" d="M338.269,419.5v16c0,8.8-7.2,16-16,16h-8h-16c-8.8,0-16-7.2-16-16v-16h8h40H338.269z"></path>
  <circle cx="326.269" cy="327.5" r="12" fill="#73020C"></circle>
  <path fill="#F2F2F2" d="M258.269,131.5c44.16,0,80,35.84,80,80s-35.84,80-80,80s-80-35.84-80-80S214.109,131.5,258.269,131.5z"></path>
  <polygon fill="#EA2424" points="306.269 195.5 306.269 227.5 274.269 227.5 274.269 259.5 242.269 259.5 242.269 227.5 210.269 227.5 210.269 195.5 242.269 195.5 242.269 163.5 274.269 163.5 274.269 195.5"></polygon>
  <circle cx="290.269" cy="323.5" r="8" fill="#73020C"></circle>
  <rect width="72" height="32" x="218.269" y="363.5" fill="#8BAAE8"></rect>
  <circle cx="278.269" cy="95.5" r="12" fill="#F27979"></circle>
  <circle cx="246.269" cy="335.5" r="12" fill="#F27979"></circle>
  <circle cx="234.269" cy="99.5" r="8" fill="#73020C"></circle>
  <path fill="#3D71D9" d="M226.269,419.5v16c0,8.8-7.2,16-16,16h-24c-8.8,0-16-7.2-16-16v-16h8h40H226.269z"></path>
  <rect width="24" height="24" x="186.269" y="451.5" fill="#666"></rect>
  <circle cx="186.109" cy="323.66" r="16" fill="#73020C"></circle>
  <circle cx="170.269" cy="127.5" r="16" fill="#F27979"></circle>
  <circle cx="158.269" cy="275.5" r="12" fill="#F27979"></circle>
  <circle cx="146.269" cy="179.5" r="8" fill="#73020C"></circle>
</svg>
