<svg xmlns="http://www.w3.org/2000/svg" viewBox="0 0 64 64" id="infusion">
  <g fill="#ff6663">
    <path d="M7 11.2h14.76v20.64H7zM53.22 55.43c1.01 0 1.84-.82 1.84-1.84v-4.28h-6.12v4.28c0 1.01.82 1.84 1.84 1.84h2.44z"></path>
    <path d="M51.94 52.31h.12v.12h-.12z"></path>
  </g>
  <g fill="#542c2c">
    <path d="M60 47.81c.83 0 1.5.67 1.5 1.5s-.67 1.5-1.5 1.5h-3.44v2.79c0 1.73-1.33 3.14-3.02 3.3l-.04 3.12A1.5 1.5 0 0 1 52 61.5h-.02c-.83-.01-1.49-.69-1.48-1.52l.04-3.07c-1.73-.13-3.1-1.56-3.1-3.31v-2.79h-3.32c-.83 0-1.5-.67-1.5-1.5s.67-1.5 1.5-1.5H50.5V37.36c0-.83.67-1.5 1.5-1.5s1.5.67 1.5 1.5v10.45H60zm-6.44 5.79v-2.79h-3.12v2.79c0 .18.15.33.34.33h2.44c.19 0 .34-.15.34-.33zm-.06-22.36v.8c0 .83-.67 1.5-1.5 1.5s-1.5-.67-1.5-1.5v-.8c0-.83.67-1.5 1.5-1.5s1.5.67 1.5 1.5zm0-9.24v3.72c0 .83-.67 1.5-1.5 1.5s-1.5-.67-1.5-1.5V22c0-4.69-3.81-8.5-8.5-8.5s-8.5 3.81-8.5 8.5v21.19c0 5.69-4.62 10.31-10.31 10.31s-10.31-4.62-10.31-10.31v-6.85h-6.3c-2.25 0-4.08-1.83-4.08-4.08V25c0-.83.67-1.5 1.5-1.5s1.5.67 1.5 1.5v7.26c0 .6.48 1.08 1.08 1.08h15.6c.6 0 1.08-.48 1.08-1.08v-1.4h-4.44c-.83 0-1.5-.67-1.5-1.5s.67-1.5 1.5-1.5h4.44v-4.84h-4.44c-.83 0-1.5-.67-1.5-1.5s.67-1.5 1.5-1.5h4.44v-4.84h-4.44c-.83 0-1.5-.67-1.5-1.5s.67-1.5 1.5-1.5h4.44v-1.4c0-.6-.48-1.08-1.08-1.08H6.58c-.6 0-1.08.48-1.08 1.08v3.51c0 .83-.67 1.5-1.5 1.5s-1.5-.67-1.5-1.5v-3.51c0-2.25 1.83-4.08 4.08-4.08h6.3V4c0-.83.67-1.5 1.5-1.5s1.5.67 1.5 1.5v2.7h6.3c2.25 0 4.08 1.83 4.08 4.08v21.48c0 2.25-1.83 4.08-4.08 4.08h-6.3v6.85c0 4.03 3.28 7.31 7.31 7.31s7.31-3.28 7.31-7.31V22c0-6.34 5.16-11.5 11.5-11.5S53.5 15.66 53.5 22z"></path>
    <path d="M27.67 3.55c2.28 1.74 3.59 4.37 3.59 7.23 0 .83-.67 1.5-1.5 1.5s-1.5-.67-1.5-1.5c0-1.91-.88-3.68-2.41-4.84-.66-.51-.79-1.45-.29-2.11a1.51 1.51 0 0 1 2.11-.28zm-3.95-1.72c.82.14 1.37.92 1.23 1.74a1.5 1.5 0 0 1-1.48 1.24c-.08 0-.17-.01-.26-.02-.34-.06-.68-.09-1.03-.09-.83 0-1.5-.67-1.5-1.5s.67-1.5 1.5-1.5c.52 0 1.04.05 1.54.13zm-.53 53.67c.83 0 1.5.67 1.5 1.5s-.67 1.5-1.5 1.5c-6.81 0-12.87-4.58-14.73-11.14-.23-.79.24-1.62 1.03-1.85.8-.22 1.63.24 1.85 1.03 1.5 5.28 6.37 8.96 11.85 8.96zM10.88 39.84v1.63c0 .83-.67 1.5-1.5 1.5s-1.5-.67-1.5-1.5v-1.63c0-.83.67-1.5 1.5-1.5s1.5.67 1.5 1.5zM5.5 19.96v.56c0 .83-.67 1.5-1.5 1.5s-1.5-.67-1.5-1.5v-.56c0-.83.67-1.5 1.5-1.5s1.5.67 1.5 1.5z"></path>
  </g>
</svg>
